<svg width="35" height="36" viewBox="0 0 35 36" fill="none" xmlns="http://www.w3.org/2000/svg">
<path d="M17.2083 16.3958C13.8979 15.5354 12.8333 14.6458 12.8333 13.2604C12.8333 11.6708 14.3063 10.5625 16.7708 10.5625C19.3667 10.5625 20.3292 11.8021 20.4167 13.625H23.6396C23.5375 11.1167 22.0063 8.8125 18.9583 8.06875V4.875H14.5833V8.025C11.7542 8.6375 9.47917 10.475 9.47917 13.2896C9.47917 16.6583 12.2646 18.3354 16.3333 19.3125C19.9792 20.1875 20.7083 21.4708 20.7083 22.8271C20.7083 23.8333 19.9938 25.4375 16.7708 25.4375C13.7667 25.4375 12.5854 24.0958 12.425 22.375H9.21667C9.39167 25.5688 11.7833 27.3625 14.5833 27.9604V31.125H18.9583V27.9896C21.8021 27.45 24.0625 25.8021 24.0625 22.8125C24.0625 18.6708 20.5188 17.2562 17.2083 16.3958Z" fill="white"/>
</svg>
